<svg width="100" height="100" viewBox="0 0 100 100" fill="none" xmlns="http://www.w3.org/2000/svg">
<rect width="100" height="100" rx="30" fill="#3A1321"/>
<path d="M76.5303 65.8542L71.0928 54.9792C69.5928 51.9479 69.5928 48.4167 71.0928 45.3855L76.5303 34.5104C81.1865 25.1667 71.1553 15.3542 61.9365 20.2292L57.124 22.7917C56.4678 23.1355 55.9365 23.698 55.624 24.3855L37.8115 63.8854C37.0928 65.5104 37.749 67.4167 39.3115 68.2292L61.9365 80.1355C71.1553 85.0105 81.1865 75.1667 76.5303 65.8542Z" fill="#ECE5DB"/>
<path d="M34.0298 61.4169L45.686 35.5419C46.9985 32.6357 43.8735 29.6982 41.061 31.1982L23.0298 40.6669C15.3735 44.6982 15.3735 55.6357 23.0298 59.6669L29.4048 63.0107C31.1235 63.9169 33.2173 63.1982 34.0298 61.4169Z" fill="#ECE5DB"/>
</svg>
