<svg width="100" height="100" viewBox="0 0 100 100" fill="none" xmlns="http://www.w3.org/2000/svg">
<rect width="100" height="100" rx="30" fill="#145B41" style="fill:#145B41;fill:color(display-p3 0.0791 0.3583 0.2543);fill-opacity:1;"/>
<path d="M76.531 65.8542L71.0935 54.9792C69.5935 51.9479 69.5935 48.4167 71.0935 45.3855L76.531 34.5104C81.1873 25.1667 71.156 15.3542 61.9373 20.2292L57.1248 22.7917C56.4685 23.1355 55.9373 23.698 55.6248 24.3855L37.8123 63.8854C37.0935 65.5104 37.7498 67.4167 39.3123 68.2292L61.9373 80.1355C71.156 85.0105 81.1873 75.1667 76.531 65.8542Z" fill="#ECE5DB" style="fill:#ECE5DB;fill:color(display-p3 0.9255 0.8980 0.8588);fill-opacity:1;"/>
<path d="M34.0293 61.4167L45.6855 35.5417C46.998 32.6355 43.873 29.698 41.0605 31.198L23.0293 40.6667C15.373 44.698 15.373 55.6355 23.0293 59.6667L29.4043 63.0105C31.123 63.9167 33.2168 63.198 34.0293 61.4167Z" fill="#ECE5DB" style="fill:#ECE5DB;fill:color(display-p3 0.9255 0.8980 0.8588);fill-opacity:1;"/>
</svg>
