<svg width="31" height="32" viewBox="0 0 31 32" fill="none" xmlns="http://www.w3.org/2000/svg">
<path d="M29.408 10.5226C29.408 9.78213 29.2397 9.12585 28.9031 8.5537C28.6002 8.01521 28.1964 7.56086 27.6915 7.19065C27.1867 6.82044 26.6314 6.53436 26.0256 6.33243C25.4534 6.16415 24.9149 6.08001 24.4101 6.08001C23.636 6.08001 22.8451 6.24829 22.0374 6.58485C21.2633 6.95506 20.5565 7.47672 19.9171 8.14983C19.2776 8.82295 18.756 9.63068 18.3521 10.573C17.9482 11.5154 17.7463 12.5587 17.7463 13.703C17.7463 15.6887 18.1165 17.3883 18.8569 18.8018C19.631 20.2154 20.5397 21.3933 21.583 22.3357C22.66 23.3117 23.7538 24.069 24.8645 24.6074C26.0088 25.1796 26.9511 25.5835 27.6915 25.819V24.2036C27.0184 23.7997 26.2948 23.3622 25.5207 22.891C24.7803 22.4198 24.0904 21.8645 23.4509 21.2251C22.8451 20.5856 22.3403 19.862 21.9364 19.0543C21.5326 18.2465 21.3306 17.3378 21.3306 16.3282C21.3306 15.8233 21.3811 15.4195 21.4821 15.1166C21.583 14.8137 21.7008 14.5781 21.8355 14.4098C22.0037 14.2415 22.1552 14.1237 22.2898 14.0564C22.4581 13.9891 22.5927 13.9554 22.6937 13.9554C23.0639 13.9554 23.5182 14.0564 24.0567 14.2583C24.5952 14.4939 25.1001 14.6117 25.5712 14.6117C26.0088 14.6117 26.4463 14.5108 26.8838 14.3088C27.355 14.1405 27.7757 13.8713 28.1459 13.5011C28.5161 13.1645 28.819 12.7438 29.0546 12.239C29.2902 11.7342 29.408 11.162 29.408 10.5226ZM13.6634 10.6235C13.6634 9.8831 13.4952 9.22682 13.1586 8.65467C12.8557 8.08252 12.4518 7.61134 11.947 7.24113C11.4422 6.90458 10.8869 6.63533 10.2811 6.4334C9.70891 6.26512 9.15359 6.18098 8.6151 6.18098C7.84102 6.18098 7.06694 6.34926 6.29286 6.68581C5.51878 7.05603 4.81201 7.56086 4.17255 8.20032C3.53309 8.87343 3.01143 9.68117 2.60756 10.6235C2.23735 11.5659 2.05225 12.6092 2.05225 13.7535C2.05225 15.7392 2.42246 17.4388 3.16288 18.8523C3.93696 20.2995 4.84566 21.4943 5.88899 22.4367C6.96597 23.4127 8.05978 24.1699 9.17041 24.7084C10.2811 25.2806 11.2066 25.6844 11.947 25.92V24.2541C11.2739 23.8502 10.5503 23.4127 9.77622 22.9415C9.03579 22.4703 8.34585 21.915 7.70639 21.2755C7.10059 20.6361 6.57893 19.9125 6.14141 19.1047C5.73754 18.3307 5.53561 17.422 5.53561 16.3786C5.53561 15.4363 5.72071 14.8137 6.09092 14.5108C6.49479 14.2078 6.79769 14.0564 6.99963 14.0564C7.33618 14.0564 7.77371 14.1574 8.3122 14.3593C8.85069 14.5612 9.35552 14.6622 9.8267 14.6622C10.2642 14.6622 10.7017 14.5612 11.1393 14.3593C11.6104 14.191 12.0311 13.9218 12.4014 13.5516C12.7716 13.215 13.0745 12.7943 13.3101 12.2895C13.5456 11.8183 13.6634 11.263 13.6634 10.6235Z" fill="url(#paint0_linear_11_90)"/>
<defs>
<linearGradient id="paint0_linear_11_90" x1="29.3897" y1="16.2013" x2="2.01303" y2="16.2013" gradientUnits="userSpaceOnUse">
<stop stop-color="#180202" stop-opacity="0.25"/>
<stop offset="1" stop-color="#180202"/>
</linearGradient>
</defs>
</svg>
