<svg width="69" height="69" viewBox="0 0 69 69" fill="none" xmlns="http://www.w3.org/2000/svg">
<path fill-rule="evenodd" clip-rule="evenodd" d="M49.4518 3.69719C50.5686 2.58043 52.3792 2.58043 53.496 3.69719L64.9346 15.1358C66.0514 16.2525 66.0514 18.0632 64.9346 19.1799C63.8178 20.2967 62.0072 20.2967 60.8905 19.1799L49.4518 7.74135C48.3351 6.62458 48.3351 4.81395 49.4518 3.69719Z" fill="#ECE5DB"/>
<path fill-rule="evenodd" clip-rule="evenodd" d="M40.8728 12.2763C41.9895 11.1595 43.8002 11.1595 44.9169 12.2763L56.3556 23.7149C57.4723 24.8317 57.4723 26.6423 56.3556 27.759L23.4695 60.645C23.1176 60.9969 22.68 61.2509 22.1999 61.3818L6.47177 65.6713C5.48172 65.9413 4.4229 65.6601 3.69726 64.9345C2.97162 64.2088 2.69044 63.15 2.96045 62.16L7.24993 46.4319C7.38087 45.9518 7.63484 45.5141 7.98674 45.1623L40.8728 12.2763ZM12.5679 48.6694L9.79498 58.8368L19.9624 56.0639L50.2893 25.737L42.8949 18.3425L12.5679 48.6694Z" fill="#ECE5DB"/>
</svg>
