<svg width="69" height="69" viewBox="0 0 69 69" fill="none" xmlns="http://www.w3.org/2000/svg">
<path fill-rule="evenodd" clip-rule="evenodd" d="M5.71924 17.158C5.71924 15.5786 6.99955 14.2983 8.57889 14.2983H60.0527C61.632 14.2983 62.9123 15.5786 62.9123 17.158C62.9123 18.7373 61.632 20.0176 60.0527 20.0176H8.57889C6.99955 20.0176 5.71924 18.7373 5.71924 17.158Z" fill="#ECE5DB"/>
<path fill-rule="evenodd" clip-rule="evenodd" d="M28.5967 8.57892C27.8382 8.57892 27.1109 8.8802 26.5746 9.41649C26.0383 9.95278 25.737 10.6801 25.737 11.4386V14.2982H42.8949V11.4386C42.8949 10.6801 42.5936 9.95278 42.0574 9.41649C41.5211 8.8802 40.7937 8.57892 40.0353 8.57892H28.5967ZM48.6142 14.2982V11.4386C48.6142 9.16329 47.7104 6.9812 46.1015 5.37233C44.4927 3.76347 42.3106 2.85962 40.0353 2.85962H28.5967C26.3214 2.85962 24.1393 3.76347 22.5304 5.37233C20.9215 6.9812 20.0177 9.16329 20.0177 11.4386V14.2982H14.2984C12.719 14.2982 11.4387 15.5785 11.4387 17.1579V57.1929C11.4387 59.4682 12.3426 61.6503 13.9514 63.2592C15.5603 64.868 17.7424 65.7719 20.0177 65.7719H48.6142C50.8895 65.7719 53.0716 64.868 54.6805 63.2592C56.2894 61.6503 57.1932 59.4682 57.1932 57.1929V17.1579C57.1932 15.5785 55.9129 14.2982 54.3336 14.2982H48.6142ZM17.158 20.0175V57.1929C17.158 57.9514 17.4593 58.6787 17.9956 59.215C18.5319 59.7513 19.2593 60.0526 20.0177 60.0526H48.6142C49.3727 60.0526 50.1 59.7513 50.6363 59.215C51.1726 58.6787 51.4739 57.9514 51.4739 57.1929V20.0175H17.158Z" fill="#ECE5DB"/>
</svg>
